<svg width="142" height="43" viewBox="0 0 142 43" fill="none" xmlns="http://www.w3.org/2000/svg">
<path d="M1.90222 35.2887L28.3966 18.034V14.0264C25.0569 13.4698 22.4966 10.5755 22.4966 7.01321C22.4966 3.11698 25.6135 0 29.5098 0C33.406 0 36.523 3.11698 36.523 7.01321C36.523 7.68113 36.0777 8.12642 35.4098 8.12642C34.7418 8.12642 34.2966 7.68113 34.2966 7.01321C34.2966 4.34151 32.1815 2.22642 29.5098 2.22642C26.8381 2.22642 24.723 4.34151 24.723 7.01321C24.723 9.68491 26.8381 11.8 29.5098 11.8C30.1777 11.8 30.623 12.2453 30.623 12.9132V18.034L57.2286 35.4C58.3418 36.1792 59.0098 37.4038 59.0098 38.7396C59.0098 40.8547 57.4513 42.5245 55.4475 42.6359H3.68335C1.67957 42.5245 0.00976396 40.8547 0.00976396 38.7396C0.00976396 37.2925 0.78901 36.0679 1.90222 35.2887ZM4.01731 40.5208H55.0022C56.0041 40.5208 56.7834 39.7415 56.7834 38.7396C56.7834 38.183 56.4494 37.6264 56.0041 37.2925L29.5098 19.9264L3.12674 37.0698C2.57014 37.4038 2.12486 37.9604 2.12486 38.6283C2.23618 39.7415 3.01542 40.5208 4.01731 40.5208Z" fill="#1E1E1E"/>
<path d="M40.986 27.3179V9.91587H34.28V7.15787H50.618V9.91587H43.912V27.3179H40.986ZM51.6039 27.3179V12.1979H54.2079V15.8659L53.8439 15.3899C54.0306 14.9045 54.2732 14.4612 54.5719 14.0599C54.8706 13.6492 55.2159 13.3132 55.6079 13.0519C55.9906 12.7719 56.4152 12.5572 56.8819 12.4079C57.3579 12.2492 57.8432 12.1559 58.3379 12.1279C58.8326 12.0905 59.3086 12.1139 59.7659 12.1979V14.9419C59.2712 14.8112 58.7206 14.7739 58.1139 14.8299C57.5166 14.8859 56.9659 15.0772 56.4619 15.4039C55.9859 15.7119 55.6079 16.0852 55.3279 16.5239C55.0572 16.9625 54.8612 17.4525 54.7399 17.9939C54.6186 18.5259 54.5579 19.0905 54.5579 19.6879V27.3179H51.6039ZM69.0046 27.7379C67.5019 27.7379 66.1813 27.4112 65.0426 26.7579C63.9133 26.0952 63.0313 25.1759 62.3966 23.9999C61.7713 22.8145 61.4586 21.4425 61.4586 19.8839C61.4586 18.2319 61.7666 16.7992 62.3826 15.5859C63.0079 14.3725 63.8759 13.4345 64.9866 12.7719C66.0973 12.1092 67.3899 11.7779 68.8646 11.7779C70.4046 11.7779 71.7159 12.1372 72.7986 12.8559C73.8813 13.5652 74.6886 14.5779 75.2206 15.8939C75.7619 17.2099 75.9766 18.7732 75.8646 20.5839H72.9386V19.5199C72.9199 17.7652 72.5839 16.4679 71.9306 15.6279C71.2866 14.7879 70.3019 14.3679 68.9766 14.3679C67.5113 14.3679 66.4099 14.8299 65.6726 15.7539C64.9353 16.6779 64.5666 18.0125 64.5666 19.7579C64.5666 21.4192 64.9353 22.7072 65.6726 23.6219C66.4099 24.5272 67.4739 24.9799 68.8646 24.9799C69.7793 24.9799 70.5679 24.7745 71.2306 24.3639C71.9026 23.9439 72.4253 23.3465 72.7986 22.5719L75.6686 23.4819C75.0806 24.8352 74.1893 25.8852 72.9946 26.6319C71.7999 27.3692 70.4699 27.7379 69.0046 27.7379ZM63.6146 20.5839V18.3019H74.4086V20.5839H63.6146ZM89.3475 27.3179V19.8839C89.3475 19.2959 89.2961 18.6939 89.1935 18.0779C89.1001 17.4525 88.9135 16.8739 88.6335 16.3419C88.3628 15.8099 87.9755 15.3805 87.4715 15.0539C86.9768 14.7272 86.3281 14.5639 85.5255 14.5639C85.0028 14.5639 84.5081 14.6525 84.0415 14.8299C83.5748 14.9979 83.1641 15.2732 82.8095 15.6559C82.4641 16.0385 82.1888 16.5425 81.9835 17.1679C81.7875 17.7932 81.6895 18.5539 81.6895 19.4499L79.8695 18.7639C79.8695 17.3919 80.1261 16.1832 80.6395 15.1379C81.1528 14.0832 81.8901 13.2619 82.8515 12.6739C83.8128 12.0859 84.9748 11.7919 86.3375 11.7919C87.3828 11.7919 88.2601 11.9599 88.9695 12.2959C89.6788 12.6319 90.2528 13.0752 90.6915 13.6259C91.1395 14.1672 91.4801 14.7599 91.7135 15.4039C91.9468 16.0479 92.1055 16.6779 92.1895 17.2939C92.2735 17.9099 92.3155 18.4512 92.3155 18.9179V27.3179H89.3475ZM78.7215 27.3179V12.1979H81.3395V16.5659H81.6895V27.3179H78.7215ZM101.917 27.7379C100.507 27.7379 99.2893 27.3879 98.2626 26.6879C97.2453 25.9879 96.4566 25.0359 95.8966 23.8319C95.346 22.6185 95.0706 21.2559 95.0706 19.7439C95.0706 18.2225 95.3506 16.8645 95.9106 15.6699C96.4706 14.4659 97.264 13.5185 98.2906 12.8279C99.3266 12.1279 100.554 11.7779 101.973 11.7779C103.401 11.7779 104.6 12.1279 105.571 12.8279C106.551 13.5185 107.288 14.4659 107.783 15.6699C108.287 16.8739 108.539 18.2319 108.539 19.7439C108.539 21.2559 108.287 22.6139 107.783 23.8179C107.279 25.0219 106.537 25.9785 105.557 26.6879C104.577 27.3879 103.363 27.7379 101.917 27.7379ZM102.323 25.0919C103.284 25.0919 104.068 24.8632 104.675 24.4059C105.281 23.9485 105.725 23.3185 106.005 22.5159C106.285 21.7132 106.425 20.7892 106.425 19.7439C106.425 18.6985 106.28 17.7745 105.991 16.9719C105.711 16.1692 105.272 15.5439 104.675 15.0959C104.087 14.6479 103.335 14.4239 102.421 14.4239C101.45 14.4239 100.652 14.6619 100.027 15.1379C99.4013 15.6139 98.9346 16.2532 98.6266 17.0559C98.328 17.8585 98.1786 18.7545 98.1786 19.7439C98.1786 20.7425 98.328 21.6479 98.6266 22.4599C98.9346 23.2625 99.392 23.9019 99.9986 24.3779C100.615 24.8539 101.389 25.0919 102.323 25.0919ZM106.425 27.3179V16.4399H106.089V7.15787H109.029V27.3179H106.425ZM111.686 27.3179V26.8559L120.268 14.8159H112.47V12.1979H124.916V12.6739L116.348 24.6999H124.496V27.3179H111.686ZM129.789 34.0379L132.715 26.0719L132.757 28.4239L126.163 12.1979H129.215L134.143 24.7279H133.247L137.951 12.1979H140.919L132.575 34.0379H129.789Z" fill="#1E1E1E"/>
</svg>
